FFmpeg version SVN-r25716, Copyright (c) 2000-2010 the FFmpeg developers  built on Nov 10 2010 12:23:18 with gcc 4.1.2 20080704 (Red Hat 4.1.2-48)  configuration: --enable-libmp3lame --enable-shared --disable-mmx --arch=x86_64  libavutil     50.33. 0 / 50.33. 0  libavcore      0.12. 1 /  0.12. 1  libavcodec    52.94. 4 / 52.94. 4  libavformat   52.84. 0 / 52.84. 0  libavdevice   52. 2. 2 / 52. 2. 2  libavfilter    1.59. 0 /  1.59. 0  libswscale     0.12. 0 /  0.12. 0Seems stream 0 codec frame rate differs from container frame rate: 600.00 (600/1) -> 6.00 (6/1)Input #0, mov,mp4,m4a,3gp,3g2,mj2, from '/RAID10/data/converted_video_files/28776.mov':  Metadata:    major_brand     : qt      minor_version   : 537199360    compatible_brands: qt    Duration: 00:00:19.66, start: 0.000000, bitrate: 1072 kb/s    Stream #0.0(eng): Video: mjpeg, gray, 425x250 [PAR 1:1 DAR 17:10], 1071 kb/s, 6 fps, 6 tbr, 600 tbn, 600 tbc[buffer @ 0x75dec40] w:425 h:250 pixfmt:gray[ffsink @ 0x75deeb0] auto-inserting filter 'auto-inserted scaler 0' between the filter 'src' and the filter 'out'[scale @ 0x75e8fa0] w:425 h:250 fmt:gray -> w:425 h:250 fmt:yuv420p flags:0x4Output #0, flv, to '/RAID10/data/converted_video_files/28776.flv':  Metadata:    encoder         : Lavf52.84.0    Stream #0.0(eng): Video: flv, yuv420p, 425x250 [PAR 1:1 DAR 17:10], q=2-31, 600 kb/s, 1k tbn, 24 tbcStream mapping:  Stream #0.0 -> #0.0Press [q] to stop encodingframe=   96 fps=  0 q=9.6 size=     676kB time=15.88 bitrate= 348.7kbits/s    frame=  118 fps=  0 q=15.1 Lsize=     911kB time=19.54 bitrate= 381.8kbits/s    video:909kB audio:0kB global headers:0kB muxing overhead 0.225486%